<?xml version="1.0" encoding="UTF-8" standalone="no"?>
<!DOCTYPE svg PUBLIC "-//W3C//DTD SVG 1.1//EN" "http://www.w3.org/Graphics/SVG/1.1/DTD/svg11.dtd">
<svg width="100%" height="100%" viewBox="0 0 2146 2435" version="1.1" xmlns="http://www.w3.org/2000/svg" xmlns:xlink="http://www.w3.org/1999/xlink" xml:space="preserve" xmlns:serif="http://www.serif.com/" style="fill-rule:evenodd;clip-rule:evenodd;stroke-linecap:round;stroke-miterlimit:1;">
    <g transform="matrix(1,0,0,1,-167.223,-22.9299)">
        <g transform="matrix(1.63486,0,0,1.63486,-1290.31,-1226.24)">
            <g id="path4" transform="matrix(6.41889,0,0,6.34939,546.476,-21.5712)">
                <path d="M256,300L154.904,357.103L54.904,298.103L56,182L157.095,124.897L257.095,183.897L256,300Z" style="fill:rgb(232,186,65);fill-rule:nonzero;stroke:rgb(100,39,78);stroke-width:1.63px;"/>
            </g>
            <g id="path68-9-9-4-5" transform="matrix(4.16667,0,0,4.16667,411.624,-17.4092)">
                <ellipse cx="282.599" cy="514.274" rx="11.041" ry="11.401" style="fill:rgb(132,214,231);fill-opacity:0.7;stroke:rgb(100,39,78);stroke-width:2.5px;"/>
            </g>
            <g id="path68-9-9-4-6" transform="matrix(4.16667,0,0,4.16667,411.624,-17.4092)">
                <ellipse cx="277.978" cy="490.643" rx="8.035" ry="7.825" style="fill:rgb(132,214,231);fill-opacity:0.7;stroke:rgb(100,39,78);stroke-width:2.5px;"/>
            </g>
            <g id="path66" transform="matrix(4.16667,0,0,4.16667,411.624,-17.4092)">
                <ellipse cx="152.536" cy="335.895" rx="16.174" ry="16.522" style="fill:rgb(181,174,189);fill-opacity:0.7;stroke:rgb(100,39,78);stroke-width:2.5px;"/>
            </g>
            <g id="path68" transform="matrix(4.16667,0,0,4.16667,411.624,-17.4092)">
                <ellipse cx="175.257" cy="287.097" rx="21.18" ry="21.517" style="fill:rgb(132,214,231);fill-opacity:0.7;stroke:rgb(100,39,78);stroke-width:2.5px;"/>
            </g>
            <g id="path68-9" transform="matrix(4.16667,0,0,4.16667,411.624,-17.4092)">
                <ellipse cx="368.477" cy="280.464" rx="21.18" ry="21.517" style="fill:rgb(132,214,231);fill-opacity:0.7;stroke:rgb(100,39,78);stroke-width:2.5px;"/>
            </g>
            <g id="path68-9-2" transform="matrix(4.16667,0,0,4.16667,411.624,-17.4092)">
                <ellipse cx="246.978" cy="503.323" rx="21.18" ry="21.517" style="fill:rgb(132,214,231);fill-opacity:0.7;stroke:rgb(100,39,78);stroke-width:2.5px;"/>
            </g>
            <g id="path68-9-9" transform="matrix(4.16667,0,0,4.16667,411.624,-17.4092)">
                <ellipse cx="402.365" cy="313.893" rx="16.158" ry="15.738" style="fill:rgb(132,214,231);fill-opacity:0.7;stroke:rgb(100,39,78);stroke-width:2.5px;"/>
            </g>
            <g id="path68-9-9-3" transform="matrix(4.16667,0,0,4.16667,411.624,-17.4092)">
                <ellipse cx="310.327" cy="492.18" rx="16.158" ry="15.738" style="fill:rgb(132,214,231);fill-opacity:0.7;stroke:rgb(100,39,78);stroke-width:2.5px;"/>
            </g>
            <g id="path68-9-9-4" transform="matrix(4.16667,0,0,4.16667,411.624,-17.4092)">
                <ellipse cx="333.818" cy="302.366" rx="11.041" ry="11.401" style="fill:rgb(132,214,231);fill-opacity:0.7;stroke:rgb(100,39,78);stroke-width:2.5px;"/>
            </g>
            <g id="path68-9-9-4-1" transform="matrix(4.16667,0,0,4.16667,411.624,-17.4092)">
                <ellipse cx="341.52" cy="481.998" rx="11.041" ry="11.401" style="fill:rgb(132,214,231);fill-opacity:0.7;stroke:rgb(100,39,78);stroke-width:2.5px;"/>
            </g>
            <g id="path68-9-9-1" transform="matrix(4.16667,0,0,4.16667,411.624,-17.4092)">
                <ellipse cx="364.626" cy="325.804" rx="16.158" ry="15.738" style="fill:rgb(132,214,231);fill-opacity:0.7;stroke:rgb(100,39,78);stroke-width:2.5px;"/>
            </g>
            <g id="path68-9-9-1-3" transform="matrix(4.16667,0,0,4.16667,411.624,-17.4092)">
                <ellipse cx="330.737" cy="258.178" rx="12.755" ry="12.726" style="fill:rgb(132,214,231);fill-opacity:0.7;stroke:rgb(100,39,78);stroke-width:2.5px;"/>
            </g>
            <g id="path68-9-9-1-3-9" transform="matrix(4.16667,0,0,4.16667,411.624,-17.4092)">
                <ellipse cx="318.606" cy="457.599" rx="12.755" ry="12.726" style="fill:rgb(132,214,231);fill-opacity:0.7;stroke:rgb(100,39,78);stroke-width:2.5px;"/>
            </g>
            <g id="path67" transform="matrix(4.16667,0,0,4.16667,411.624,-17.4092)">
                <path d="M118.293,280.385C125.712,280.128 132.698,283.769 136.396,289.82C140.094,295.872 139.922,303.38 135.949,309.276C131.976,315.172 124.829,318.526 117.43,317.968" style="fill:rgb(132,214,231);fill-opacity:0.7;fill-rule:nonzero;stroke:rgb(100,39,78);stroke-width:2.5px;"/>
            </g>
            <g transform="matrix(8.07414,0,0,11.132,1012.27,1761.42)">
                <g id="text3">
                    <text x="0px" y="0px" style="font-family:'MalayalamMN', 'Malayalam MN';font-size:36px;fill:rgb(100,39,78);stroke:rgb(100,39,78);stroke-width:1.07px;">InCURA</text>
                </g>
            </g>
        </g>
    </g>
</svg>
